HIERARCHY
ROOT Pelvis
{
	OFFSET 0.000000 0.941512 0.000000
	CHANNELS 6 Xposition Yposition Zposition Zrotation Yrotation Xrotation 
	JOINT Pelvis_L_Hip
	{
		OFFSET 0.000000 0.000000 0.000000
		CHANNELS 3 Zrotation Yrotation Xrotation
		JOINT L_Hip
		{
			OFFSET 0.062321 -0.080322 -0.016990
			CHANNELS 3 Zrotation Yrotation Xrotation
			JOINT L_Knee
			{
				OFFSET 0.093051 -0.381305 -0.029784
				CHANNELS 3 Zrotation Yrotation Xrotation
				JOINT L_Ankle
				{
					OFFSET -0.010371 -0.431000 -0.033614
					CHANNELS 3 Zrotation Yrotation Xrotation
					End Site #name: L_Foot
					{
						OFFSET 0.069299 -0.038670 0.119418
					}
				}
			}
		}
	}
	JOINT Pelvis_R_Hip
	{
		OFFSET 0.000000 0.000000 0.000000
		CHANNELS 3 Zrotation Yrotation Xrotation
		JOINT R_Hip
		{
			OFFSET -0.055334 -0.094904 -0.002373
			CHANNELS 3 Zrotation Yrotation Xrotation
			JOINT R_Knee
			{
				OFFSET -0.064207 -0.384370 -0.019592
				CHANNELS 3 Zrotation Yrotation Xrotation
				JOINT R_Ankle
				{
					OFFSET 0.025418 -0.419734 -0.065953
					CHANNELS 3 Zrotation Yrotation Xrotation
					End Site #name: R_Foot
					{
						OFFSET -0.057233 -0.039888 0.132134
					}
				}
			}
		}
	}
	JOINT Pelvis_Spine1
	{
		OFFSET 0.000000 0.000000 0.000000
		CHANNELS 3 Zrotation Yrotation Xrotation
		JOINT Spine1
		{
			OFFSET -0.005562 0.124093 -0.043360
			CHANNELS 3 Zrotation Yrotation Xrotation
			JOINT Spine2
			{
				OFFSET 0.012244 0.139499 0.029894
				CHANNELS 3 Zrotation Yrotation Xrotation
				JOINT Spine3
				{
					OFFSET -0.002556 0.056561 0.009225
					CHANNELS 3 Zrotation Yrotation Xrotation
					JOINT Spine3_Neck
					{
						OFFSET 0.000000 0.000000 0.000000
						CHANNELS 3 Zrotation Yrotation Xrotation
						JOINT Neck
						{
							OFFSET -0.005205 0.217920 -0.024551
							CHANNELS 3 Zrotation Yrotation Xrotation
							End Site #name: Head
							{
								OFFSET 0.002365 0.091850 0.046637
							}
						}
					}
					JOINT Spine3_L_Collar
					{
						OFFSET 0.000000 0.000000 0.000000
						CHANNELS 3 Zrotation Yrotation Xrotation
						JOINT L_Collar
						{
							OFFSET 0.072225 0.116603 -0.009480
							CHANNELS 3 Zrotation Yrotation Xrotation
							JOINT L_Shoulder
							{
								OFFSET 0.115937 -0.058643 -0.021018
								CHANNELS 3 Zrotation Yrotation Xrotation
								JOINT L_Elbow
								{
									OFFSET 0.021994 -0.254722 -0.024492
									CHANNELS 3 Zrotation Yrotation Xrotation
									End Site #name: L_Wrist
									{
										OFFSET 0.048810 -0.240214 0.103329
									}
								}
							}
						}
					}
					JOINT Spine3_R_Collar
					{
						OFFSET 0.000000 0.000000 0.000000
						CHANNELS 3 Zrotation Yrotation Xrotation
						JOINT R_Collar
						{
							OFFSET -0.073372 0.120704 -0.024611
							CHANNELS 3 Zrotation Yrotation Xrotation
							JOINT R_Shoulder
							{
								OFFSET -0.108089 -0.054969 -0.020504
								CHANNELS 3 Zrotation Yrotation Xrotation
								JOINT R_Elbow
								{
									OFFSET -0.033684 -0.260739 0.009889
									CHANNELS 3 Zrotation Yrotation Xrotation
									End Site #name: R_Wrist
									{
										OFFSET -0.067980 -0.232763 0.118463
									}
								}
							}
						}
					}
				}
			}
		}
	}
}
MOTION
Frames: 13
Frame Time: 0.041667
0.326236 0.918735 1.367421 -6.636121 -1.939014 -0.350444 0.000000 0.000000 0.000000 21.704813 -2.250844 -14.681145 6.841355 -2.651089 24.910448 -9.648823 -19.006213 5.713601 0.000000 0.000000 0.000000 -1.230575 0.391363 -2.082562 -10.050746 4.662904 19.211752 -0.856768 27.169034 -13.655613 0.000000 0.000000 0.000000 -1.348106 0.963486 -8.981792 -1.944771 3.007967 36.946521 8.426714 4.473426 -32.457884 0.000000 0.000000 0.000000 3.565531 -2.620126 14.560585 0.000000 0.000000 0.000000 19.249416 -10.444589 -4.151920 -21.446504 3.686185 9.222722 4.519732 3.294026 8.921248 0.000000 0.000000 0.000000 -13.553257 5.313164 -0.990124 13.899259 -0.039935 4.629147 -15.203848 -6.207545 -8.453470 
0.394128 0.911527 1.378561 -5.260218 -1.548066 -0.085940 0.000000 0.000000 0.000000 18.496832 -2.469428 -14.746427 4.064589 -1.924411 26.805827 -5.114687 -23.116990 -2.346792 0.000000 0.000000 0.000000 -4.845152 0.888467 -5.075142 -11.849521 6.530640 25.830674 -0.261591 21.585272 -10.929097 0.000000 0.000000 0.000000 -0.811581 0.774734 -7.525644 -1.745990 2.815613 36.237601 7.857198 3.960839 -31.693984 0.000000 0.000000 0.000000 3.241931 -2.276676 12.450495 0.000000 0.000000 0.000000 19.144917 -10.927748 -4.528365 -19.169639 2.875526 7.206324 3.224766 2.962777 9.499906 0.000000 0.000000 0.000000 -12.826030 4.075209 -0.272532 11.726396 -0.125802 4.500860 -14.519513 -5.658669 -9.439379 
0.452641 0.912397 1.383259 -3.296242 -0.237230 -0.425305 0.000000 0.000000 0.000000 13.249626 -2.818733 -14.766736 2.616262 -1.559953 27.618117 -1.038153 -23.898809 -8.395817 0.000000 0.000000 0.000000 -5.840641 1.363163 -9.265260 -14.735682 9.819156 35.424925 0.052175 16.057662 -8.386708 0.000000 0.000000 0.000000 -0.567802 0.414610 -3.534819 -2.169588 2.732374 33.906349 7.388184 3.457182 -30.353007 0.000000 0.000000 0.000000 2.722350 -1.851550 10.085734 0.000000 0.000000 0.000000 18.251064 -10.578893 -4.290042 -14.948453 1.592344 3.528778 2.129175 2.473562 8.689703 0.000000 0.000000 0.000000 -12.402076 2.035398 0.969616 11.379707 0.056766 3.545937 -13.112859 -4.708286 -10.335985 
0.496857 0.922144 1.386292 -1.818591 1.426979 -0.710986 0.000000 0.000000 0.000000 7.845947 -3.127161 -14.602782 3.758176 -2.014384 27.419399 -0.090766 -24.380824 -9.816473 0.000000 0.000000 0.000000 -2.762057 2.123413 -14.064754 -18.119497 14.111757 45.490138 -0.355822 14.121563 -8.433703 0.000000 0.000000 0.000000 -0.409714 0.155526 -0.794332 -2.467611 2.699611 33.370430 6.805433 3.232633 -29.894505 0.000000 0.000000 0.000000 1.874209 -1.408021 9.926516 0.000000 0.000000 0.000000 18.833187 -11.858757 -5.098264 -12.401342 0.748698 0.403651 3.179670 2.590613 7.238551 0.000000 0.000000 0.000000 -12.598857 2.533757 0.613542 13.438910 -0.171341 4.771803 -12.529354 -4.612924 -9.069168 
0.530618 0.936708 1.392802 -0.773294 2.827172 -1.244080 0.000000 0.000000 0.000000 3.067961 -2.949846 -12.542163 5.949718 -2.584816 25.026071 -0.530432 -24.809038 -9.243740 0.000000 0.000000 0.000000 2.068881 3.217043 -18.114109 -19.057086 16.838970 53.601899 -1.084471 14.177543 -9.910675 0.000000 0.000000 0.000000 -0.090973 -0.052773 0.784969 -2.823538 2.768970 33.507465 6.256312 3.076342 -29.533473 0.000000 0.000000 0.000000 1.192824 -1.116286 10.910490 0.000000 0.000000 0.000000 19.812142 -12.483782 -5.403295 -10.691987 0.146299 -2.295932 4.831795 2.782662 4.709764 0.000000 0.000000 0.000000 -12.782195 3.172700 0.166102 15.628637 -0.293673 5.458792 -11.269218 -4.541113 -5.630306 
0.558513 0.948687 1.403331 -0.100734 3.490589 -1.477431 0.000000 0.000000 0.000000 -0.181972 -2.349407 -9.633045 7.198499 -2.607585 21.405763 -1.160515 -24.965761 -8.370111 0.000000 0.000000 0.000000 6.154492 4.468900 -21.781109 -16.658488 16.117538 57.799423 -1.305830 13.585059 -10.115906 0.000000 0.000000 0.000000 0.302705 -0.188813 1.305277 -3.129357 2.873960 33.633002 5.993982 2.981918 -29.388213 0.000000 0.000000 0.000000 0.793704 -0.970994 12.151865 0.000000 0.000000 0.000000 20.874616 -12.368890 -5.181900 -10.205085 -0.160125 -3.875354 6.345950 2.843762 1.163338 0.000000 0.000000 0.000000 -12.971503 3.389457 0.027496 16.543019 -0.371168 5.806482 -9.692451 -4.254778 -2.755373 
0.582269 0.953675 1.415875 0.283521 3.479144 -1.274689 0.000000 0.000000 0.000000 -2.017332 -1.822307 -7.563657 7.096874 -2.323001 18.956919 -1.349872 -24.830038 -8.064246 0.000000 0.000000 0.000000 8.279949 5.562248 -25.099765 -12.452452 12.611579 56.673610 -0.924179 12.122643 -8.750159 0.000000 0.000000 0.000000 0.539736 -0.276193 1.658652 -3.177591 2.874070 33.233371 5.965805 2.795948 -29.406987 0.000000 0.000000 0.000000 0.731553 -0.956045 12.751173 0.000000 0.000000 0.000000 21.740250 -11.952205 -4.797119 -10.437440 -0.190349 -4.071952 7.197952 2.620073 -2.973852 0.000000 0.000000 0.000000 -13.204996 3.118629 0.257409 16.455028 -0.396378 5.902796 -8.792866 -3.954027 -1.961198 
0.602292 0.953306 1.430124 0.293134 3.038765 -0.972792 0.000000 0.000000 0.000000 -3.142648 -1.494957 -6.402511 6.692093 -2.144794 18.280108 -0.945076 -24.437452 -8.531897 0.000000 0.000000 0.000000 8.879674 6.274092 -27.536800 -8.173824 8.424070 50.459563 -0.358625 10.167656 -6.715940 0.000000 0.000000 0.000000 0.744972 -0.369848 2.135950 -2.901939 2.740398 32.683202 5.955427 2.418817 -29.507617 0.000000 0.000000 0.000000 1.002355 -1.090316 12.879600 0.000000 0.000000 0.000000 22.157984 -11.641776 -4.589417 -10.712970 -0.039643 -3.316123 7.193468 2.165666 -6.143227 0.000000 0.000000 0.000000 -13.357586 2.585114 0.683514 16.008201 -0.280658 5.486532 -8.847358 -3.874808 -2.479230 
0.618667 0.951660 1.447683 -0.163062 2.327479 -0.828634 0.000000 0.000000 0.000000 -3.869266 -1.116592 -5.096606 6.721819 -2.116375 18.066434 -0.234402 -23.840784 -9.388622 0.000000 0.000000 0.000000 8.933348 6.581590 -28.603887 -4.963883 5.177833 40.694961 0.248002 7.095143 -3.869318 0.000000 0.000000 0.000000 1.223138 -0.506861 2.401741 -2.540153 2.598874 32.345848 5.933856 1.987216 -29.612588 0.000000 0.000000 0.000000 1.476509 -1.354933 13.359229 0.000000 0.000000 0.000000 22.342871 -11.561757 -4.613844 -11.395588 0.156960 -2.404143 6.573497 1.821757 -6.462350 0.000000 0.000000 0.000000 -13.621267 2.041382 1.156110 15.798148 -0.077955 4.786121 -9.397083 -3.979076 -3.360430 
0.631667 0.950897 1.469818 -0.920675 1.609248 -0.880166 0.000000 0.000000 0.000000 -4.212068 -0.458956 -2.798827 7.158419 -2.086403 16.821644 0.196553 -23.458316 -9.924090 0.000000 0.000000 0.000000 8.823041 6.471951 -28.096982 -2.956845 3.054731 29.372680 0.708573 2.223050 0.100707 0.000000 0.000000 0.000000 1.996489 -0.673663 2.280711 -2.303937 2.531276 32.244916 5.905858 1.561853 -29.778588 0.000000 0.000000 0.000000 2.043618 -1.715462 14.481565 0.000000 0.000000 0.000000 22.474051 -11.820386 -4.914122 -12.743354 0.359484 -1.632122 5.698120 1.880847 -3.446534 0.000000 0.000000 0.000000 -14.137509 1.542191 1.655418 15.988391 0.080714 4.306372 -9.859286 -4.050294 -4.222040 
0.641452 0.950499 1.496029 -1.632460 1.084005 -1.027898 0.000000 0.000000 0.000000 -4.201736 0.455132 0.450538 7.553797 -1.928170 14.353588 0.228770 -23.599035 -10.043090 0.000000 0.000000 0.000000 8.494594 5.992065 -26.310614 -1.597899 1.677305 18.973111 1.010879 -2.962726 4.686419 0.000000 0.000000 0.000000 2.726682 -0.793301 1.847606 -2.105179 2.486943 32.435324 5.775345 1.041447 -30.164662 0.000000 0.000000 0.000000 2.660508 -2.125815 15.753667 0.000000 0.000000 0.000000 22.424974 -12.436917 -5.514358 -14.359973 0.619595 -0.716560 4.921291 2.315409 1.463314 0.000000 0.000000 0.000000 -14.645347 1.003131 2.188912 16.332264 0.162214 4.145907 -10.016924 -4.014077 -4.833194 
0.647706 0.948324 1.525183 -2.208199 0.511181 -1.059996 0.000000 0.000000 0.000000 -3.844613 1.414788 3.990172 7.588097 -1.659967 11.540569 0.186024 -23.868708 -10.099628 0.000000 0.000000 0.000000 8.387063 5.446651 -24.078984 -0.567937 0.895871 12.229663 1.381734 -6.171779 8.461775 0.000000 0.000000 0.000000 3.306800 -0.836026 1.095917 -1.829991 2.431051 32.922640 5.475181 0.435130 -30.759868 0.000000 0.000000 0.000000 3.123410 -2.418611 16.708487 0.000000 0.000000 0.000000 22.121080 -13.100295 -6.170288 -15.989909 1.027029 0.731327 4.492826 2.827213 5.841009 0.000000 0.000000 0.000000 -14.987557 0.554222 2.641466 16.641646 0.201303 4.152469 -9.897480 -3.910825 -5.024974 
0.649705 0.943590 1.557251 -2.872617 -0.496604 -0.923277 0.000000 0.000000 0.000000 -3.115004 2.212103 7.180034 7.421560 -1.464890 9.813710 0.549218 -23.689457 -10.634714 0.000000 0.000000 0.000000 9.283454 5.111619 -22.037626 -0.061049 0.639740 10.099095 1.716921 -6.920043 9.929135 0.000000 0.000000 0.000000 4.006409 -0.866101 0.074881 -1.527724 2.400991 33.434354 5.068952 -0.097250 -31.339194 0.000000 0.000000 0.000000 3.185123 -2.409140 17.170221 0.000000 0.000000 0.000000 21.558640 -13.223380 -6.413365 -17.641875 1.650629 2.863997 4.461512 3.115794 7.826094 0.000000 0.000000 0.000000 -15.073650 0.338968 2.892930 16.746477 0.188240 4.311986 -9.603875 -3.811095 -4.720925 
